<svg xmlns="http://www.w3.org/2000/svg" width="814" height="630"><defs><linearGradient id="whcea" x1="371.97" x2="548.51" y1="763.68" y2=".74" gradientUnits="userSpaceOnUse"><stop offset="0" stop-color="#ff8f5a"/><stop offset=".99" stop-color="#ff2f96"/><stop offset="1" stop-color="#ff2f96"/></linearGradient></defs><g clip-path="url(#clip-2)"><path fill="#6055c4" d="M395.52 40.407C502.261-10.05 602.994-10.204 687.212 27.67c84.435 37.567 152.356 113.165 198.491 207.114 44.27 94.884 44.223 196.799 8.068 279.242-36.656 83.673-97.666 146.755-180.805 191.777-44.03 22.669-90.312 38.198-149.148 47.731-58.06 9.394-128.676 12.79-203.493 7.944-148.474-9.32-314.876-53.081-349.967-151.79-19.887-49.012-7.404-105.197 17.32-161.739 25.13-56.624 62.503-113.604 101.74-166.115 39.645-52.593 81.155-100.717 123.891-141.53C296.45 99.41 340.817 65.828 395.52 40.408z"/><path fill="url(#whcea)" d="M395.52 40.407C502.261-10.05 602.994-10.204 687.212 27.67c84.435 37.567 152.356 113.165 198.491 207.114 44.27 94.884 44.223 196.799 8.068 279.242-36.656 83.673-97.666 146.755-180.805 191.777-44.03 22.669-90.312 38.198-149.148 47.731-58.06 9.394-128.676 12.79-203.493 7.944-148.474-9.32-314.876-53.081-349.967-151.79-19.887-49.012-7.404-105.197 17.32-161.739 25.13-56.624 62.503-113.604 101.74-166.115 39.645-52.593 81.155-100.717 123.891-141.53C296.45 99.41 340.817 65.828 395.52 40.408z"/></g></svg>