<svg xmlns="http://www.w3.org/2000/svg" width="547" height="525" viewBox="0 0 547 525"><defs><linearGradient id="g5vna" x1="387" x2="532.01" y1="629.99" y2=".02" gradientUnits="userSpaceOnUse"><stop offset="0" stop-color="#ff8f5a"/><stop offset=".99" stop-color="#ff2f96"/><stop offset="1" stop-color="#ff2f96"/></linearGradient></defs><g><g clip-path="url(#clip-4)"><path fill="#6055c4" d="M394.819 32.771C501.505-8.89 602.187-9.019 686.362 22.255c84.392 31.02 152.279 93.443 198.39 171.019 44.247 78.347 44.2 162.5 8.063 230.576-36.637 69.09-97.616 121.179-180.712 158.354-44.008 18.718-90.266 31.542-149.072 39.413-58.031 7.756-128.611 10.561-203.39 6.56C211.243 620.48 44.927 584.346 9.853 502.84c-19.876-40.472-7.4-86.865 17.312-133.552 25.117-46.756 62.47-93.806 101.688-137.165 39.624-43.428 81.113-83.165 123.827-116.864 43.12-33.768 87.464-61.5 142.139-82.489z"/><path fill="url(#g5vna)" d="M394.819 32.771C501.505-8.89 602.187-9.019 686.362 22.255c84.392 31.02 152.279 93.443 198.39 171.019 44.247 78.347 44.2 162.5 8.063 230.576-36.637 69.09-97.616 121.179-180.712 158.354-44.008 18.718-90.266 31.542-149.072 39.413-58.031 7.756-128.611 10.561-203.39 6.56C211.243 620.48 44.927 584.346 9.853 502.84c-19.876-40.472-7.4-86.865 17.312-133.552 25.117-46.756 62.47-93.806 101.688-137.165 39.624-43.428 81.113-83.165 123.827-116.864 43.12-33.768 87.464-61.5 142.139-82.489z"/></g></g></svg>